# xmcd CD database file
#
# Track frame offsets:
#	150
#	15892
#	38892
#	59750
#
# Disc length: 1337 seconds
#
# Revision: 0
# Processed by: cddbd v1.5.1PL0 Copyright (c) Steve Scherf et al.
# Submitted via: CDex 1.51
#
DISCID=2a053704
DTITLE=Original Love - Tender Love
DYEAR=2003
DGENRE=Rock
TTITLE0=Tender Love
TTITLE1=唇によだれ
TTITLE2=愛の薬
TTITLE3=Glass
EXTD=YEAR: 2003
EXTT0=
EXTT1=
EXTT2=
EXTT3=
PLAYORDER=
